%
M48
M72
T01C0.0240
T02C0.0320
T03C0.0354
T04C0.0400
T05C0.0440
T06C0.0472
T07C0.1300
%
T01
X13510Y12264
T02
X14572Y13264
X15510Y13264
X16447Y13264
X12447Y13264
X11510Y13264
X10572Y13264
X8947Y13264
X8010Y13264
X7072Y13264
T03
X9010Y22264
X9010Y24264
X9010Y25764
X5010Y25764
X5010Y24264
X5010Y22264
T04
X1510Y21764
X1510Y20764
X1510Y19264
X1510Y18264
X1510Y17264
X1510Y16264
X1510Y15264
X1510Y14264
X1510Y13264
X1510Y12264
X1510Y22764
X1510Y23764
X1510Y24764
X1510Y25764
X1510Y26764
X1510Y27764
X20510Y27764
X20510Y26764
X20510Y25764
X20510Y24764
X20510Y23764
X20510Y22764
X20510Y20764
X20510Y19764
X20510Y18764
X20510Y17764
X20510Y16764
X20510Y15764
T05
X15010Y27764
X14010Y27764
X13010Y27764
X12010Y27764
T06
X20010Y12712
X20010Y11194
T07
X1510Y8764
X8010Y17764
X11510Y17764
X15510Y17764
X18510Y28764
M30
