G75*
G70*
%OFA0B0*%
%FSLAX24Y24*%
%IPPOS*%
%LPD*%
%AMOC8*
5,1,8,0,0,1.08239X$1,22.5*
%
%ADD10C,0.0600*%
%ADD11C,0.1380*%
%ADD12C,0.0820*%
%ADD13C,0.0820*%
%ADD14R,0.0880X0.0880*%
%ADD15C,0.0880*%
%ADD16C,0.0480*%
D10*
X007072Y013004D02*
X007072Y013524D01*
X008010Y013524D02*
X008010Y013004D01*
X008947Y013004D02*
X008947Y013524D01*
X010572Y013524D02*
X010572Y013004D01*
X011510Y013004D02*
X011510Y013524D01*
X012447Y013524D02*
X012447Y013004D01*
X014572Y013004D02*
X014572Y013524D01*
X015510Y013524D02*
X015510Y013004D01*
X016447Y013004D02*
X016447Y013524D01*
D11*
X001510Y008764D03*
X008010Y017764D03*
X011510Y017764D03*
X015510Y017764D03*
X018510Y028764D03*
D12*
X020140Y027764D02*
X020880Y027764D01*
X020880Y026764D02*
X020140Y026764D01*
X020140Y025764D02*
X020880Y025764D01*
X020880Y024764D02*
X020140Y024764D01*
X020140Y023764D02*
X020880Y023764D01*
X020880Y022764D02*
X020140Y022764D01*
X020140Y020764D02*
X020880Y020764D01*
X020880Y019764D02*
X020140Y019764D01*
X020140Y018764D02*
X020880Y018764D01*
X020880Y017764D02*
X020140Y017764D01*
X020140Y016764D02*
X020880Y016764D01*
X020880Y015764D02*
X020140Y015764D01*
X015010Y027394D02*
X015010Y028134D01*
X014010Y028134D02*
X014010Y027394D01*
X013010Y027394D02*
X013010Y028134D01*
X012010Y028134D02*
X012010Y027394D01*
X001880Y027764D02*
X001140Y027764D01*
X001140Y026764D02*
X001880Y026764D01*
X001880Y025764D02*
X001140Y025764D01*
X001140Y024764D02*
X001880Y024764D01*
X001880Y023764D02*
X001140Y023764D01*
X001140Y022764D02*
X001880Y022764D01*
X001880Y021764D02*
X001140Y021764D01*
X001140Y020764D02*
X001880Y020764D01*
X001880Y019264D02*
X001140Y019264D01*
X001140Y018264D02*
X001880Y018264D01*
X001880Y017264D02*
X001140Y017264D01*
X001140Y016264D02*
X001880Y016264D01*
X001880Y015264D02*
X001140Y015264D01*
X001140Y014264D02*
X001880Y014264D01*
X001880Y013264D02*
X001140Y013264D01*
X001140Y012264D02*
X001880Y012264D01*
D13*
X005010Y022264D03*
X005010Y024264D03*
X005010Y025764D03*
X009010Y025764D03*
X009010Y024264D03*
X009010Y022264D03*
D14*
X020010Y011194D03*
D15*
X020010Y012712D03*
D16*
X013510Y012264D03*
M02*
