G75*
G70*
%OFA0B0*%
%FSLAX24Y24*%
%IPPOS*%
%LPD*%
%AMOC8*
5,1,8,0,0,1.08239X$1,22.5*
%
%ADD10C,0.0050*%
%ADD11R,0.0250X0.0500*%
%ADD12C,0.0160*%
%ADD13R,0.0250X0.0375*%
%ADD14C,0.0060*%
%ADD15C,0.0080*%
D10*
X006635Y015014D02*
X009385Y015014D01*
X009385Y019264D01*
X006635Y019264D01*
X006635Y015014D01*
X007810Y016887D02*
X007810Y017146D01*
X008210Y017146D02*
X008210Y016887D01*
X007243Y018234D02*
X007274Y018282D01*
X007309Y018328D01*
X007346Y018372D01*
X007387Y018413D01*
X007430Y018452D01*
X007475Y018488D01*
X007522Y018520D01*
X007522Y018521D02*
X007707Y018339D01*
X007427Y018053D02*
X007242Y018234D01*
X008498Y018520D02*
X008545Y018488D01*
X008590Y018452D01*
X008633Y018413D01*
X008674Y018372D01*
X008711Y018328D01*
X008746Y018282D01*
X008777Y018234D01*
X008592Y018053D01*
X008313Y018339D02*
X008498Y018521D01*
X007360Y017764D02*
X007362Y017814D01*
X007368Y017864D01*
X007378Y017914D01*
X007391Y017962D01*
X007408Y018010D01*
X007429Y018056D01*
X007453Y018100D01*
X007481Y018142D01*
X007512Y018182D01*
X007546Y018219D01*
X007583Y018254D01*
X007622Y018285D01*
X007663Y018314D01*
X007707Y018339D01*
X007753Y018361D01*
X007800Y018379D01*
X007848Y018393D01*
X007897Y018404D01*
X007947Y018411D01*
X007997Y018414D01*
X008048Y018413D01*
X008098Y018408D01*
X008148Y018399D01*
X008196Y018387D01*
X008244Y018370D01*
X008290Y018350D01*
X008335Y018327D01*
X008378Y018300D01*
X008418Y018270D01*
X008456Y018237D01*
X008491Y018201D01*
X008524Y018162D01*
X008553Y018121D01*
X008579Y018078D01*
X008602Y018033D01*
X008621Y017986D01*
X008636Y017938D01*
X008648Y017889D01*
X008656Y017839D01*
X008660Y017789D01*
X008660Y017739D01*
X008656Y017689D01*
X008648Y017639D01*
X008636Y017590D01*
X008621Y017542D01*
X008602Y017495D01*
X008579Y017450D01*
X008553Y017407D01*
X008524Y017366D01*
X008491Y017327D01*
X008456Y017291D01*
X008418Y017258D01*
X008378Y017228D01*
X008335Y017201D01*
X008290Y017178D01*
X008244Y017158D01*
X008196Y017141D01*
X008148Y017129D01*
X008098Y017120D01*
X008048Y017115D01*
X007997Y017114D01*
X007947Y017117D01*
X007897Y017124D01*
X007848Y017135D01*
X007800Y017149D01*
X007753Y017167D01*
X007707Y017189D01*
X007663Y017214D01*
X007622Y017243D01*
X007583Y017274D01*
X007546Y017309D01*
X007512Y017346D01*
X007481Y017386D01*
X007453Y017428D01*
X007429Y017472D01*
X007408Y017518D01*
X007391Y017566D01*
X007378Y017614D01*
X007368Y017664D01*
X007362Y017714D01*
X007360Y017764D01*
X007810Y016887D02*
X007867Y016876D01*
X007924Y016868D01*
X007981Y016864D01*
X008039Y016864D01*
X008096Y016868D01*
X008153Y016876D01*
X008210Y016887D01*
X010135Y015014D02*
X012885Y015014D01*
X012885Y019264D01*
X010135Y019264D01*
X010135Y015014D01*
X011310Y016887D02*
X011310Y017146D01*
X011710Y017146D02*
X011710Y016887D01*
X010743Y018234D02*
X010774Y018282D01*
X010809Y018328D01*
X010846Y018372D01*
X010887Y018413D01*
X010930Y018452D01*
X010975Y018488D01*
X011022Y018520D01*
X011022Y018521D02*
X011207Y018339D01*
X010927Y018053D02*
X010742Y018234D01*
X011998Y018520D02*
X012045Y018488D01*
X012090Y018452D01*
X012133Y018413D01*
X012174Y018372D01*
X012211Y018328D01*
X012246Y018282D01*
X012277Y018234D01*
X012092Y018053D01*
X011813Y018339D02*
X011998Y018521D01*
X010860Y017764D02*
X010862Y017814D01*
X010868Y017864D01*
X010878Y017914D01*
X010891Y017962D01*
X010908Y018010D01*
X010929Y018056D01*
X010953Y018100D01*
X010981Y018142D01*
X011012Y018182D01*
X011046Y018219D01*
X011083Y018254D01*
X011122Y018285D01*
X011163Y018314D01*
X011207Y018339D01*
X011253Y018361D01*
X011300Y018379D01*
X011348Y018393D01*
X011397Y018404D01*
X011447Y018411D01*
X011497Y018414D01*
X011548Y018413D01*
X011598Y018408D01*
X011648Y018399D01*
X011696Y018387D01*
X011744Y018370D01*
X011790Y018350D01*
X011835Y018327D01*
X011878Y018300D01*
X011918Y018270D01*
X011956Y018237D01*
X011991Y018201D01*
X012024Y018162D01*
X012053Y018121D01*
X012079Y018078D01*
X012102Y018033D01*
X012121Y017986D01*
X012136Y017938D01*
X012148Y017889D01*
X012156Y017839D01*
X012160Y017789D01*
X012160Y017739D01*
X012156Y017689D01*
X012148Y017639D01*
X012136Y017590D01*
X012121Y017542D01*
X012102Y017495D01*
X012079Y017450D01*
X012053Y017407D01*
X012024Y017366D01*
X011991Y017327D01*
X011956Y017291D01*
X011918Y017258D01*
X011878Y017228D01*
X011835Y017201D01*
X011790Y017178D01*
X011744Y017158D01*
X011696Y017141D01*
X011648Y017129D01*
X011598Y017120D01*
X011548Y017115D01*
X011497Y017114D01*
X011447Y017117D01*
X011397Y017124D01*
X011348Y017135D01*
X011300Y017149D01*
X011253Y017167D01*
X011207Y017189D01*
X011163Y017214D01*
X011122Y017243D01*
X011083Y017274D01*
X011046Y017309D01*
X011012Y017346D01*
X010981Y017386D01*
X010953Y017428D01*
X010929Y017472D01*
X010908Y017518D01*
X010891Y017566D01*
X010878Y017614D01*
X010868Y017664D01*
X010862Y017714D01*
X010860Y017764D01*
X011310Y016887D02*
X011367Y016876D01*
X011424Y016868D01*
X011481Y016864D01*
X011539Y016864D01*
X011596Y016868D01*
X011653Y016876D01*
X011710Y016887D01*
X014135Y015014D02*
X016885Y015014D01*
X016885Y019264D01*
X014135Y019264D01*
X014135Y015014D01*
X015310Y016887D02*
X015310Y017146D01*
X015710Y017146D02*
X015710Y016887D01*
X014743Y018234D02*
X014774Y018282D01*
X014809Y018328D01*
X014846Y018372D01*
X014887Y018413D01*
X014930Y018452D01*
X014975Y018488D01*
X015022Y018520D01*
X015022Y018521D02*
X015207Y018339D01*
X014927Y018053D02*
X014742Y018234D01*
X015998Y018520D02*
X016045Y018488D01*
X016090Y018452D01*
X016133Y018413D01*
X016174Y018372D01*
X016211Y018328D01*
X016246Y018282D01*
X016277Y018234D01*
X016092Y018053D01*
X015813Y018339D02*
X015998Y018521D01*
X014860Y017764D02*
X014862Y017814D01*
X014868Y017864D01*
X014878Y017914D01*
X014891Y017962D01*
X014908Y018010D01*
X014929Y018056D01*
X014953Y018100D01*
X014981Y018142D01*
X015012Y018182D01*
X015046Y018219D01*
X015083Y018254D01*
X015122Y018285D01*
X015163Y018314D01*
X015207Y018339D01*
X015253Y018361D01*
X015300Y018379D01*
X015348Y018393D01*
X015397Y018404D01*
X015447Y018411D01*
X015497Y018414D01*
X015548Y018413D01*
X015598Y018408D01*
X015648Y018399D01*
X015696Y018387D01*
X015744Y018370D01*
X015790Y018350D01*
X015835Y018327D01*
X015878Y018300D01*
X015918Y018270D01*
X015956Y018237D01*
X015991Y018201D01*
X016024Y018162D01*
X016053Y018121D01*
X016079Y018078D01*
X016102Y018033D01*
X016121Y017986D01*
X016136Y017938D01*
X016148Y017889D01*
X016156Y017839D01*
X016160Y017789D01*
X016160Y017739D01*
X016156Y017689D01*
X016148Y017639D01*
X016136Y017590D01*
X016121Y017542D01*
X016102Y017495D01*
X016079Y017450D01*
X016053Y017407D01*
X016024Y017366D01*
X015991Y017327D01*
X015956Y017291D01*
X015918Y017258D01*
X015878Y017228D01*
X015835Y017201D01*
X015790Y017178D01*
X015744Y017158D01*
X015696Y017141D01*
X015648Y017129D01*
X015598Y017120D01*
X015548Y017115D01*
X015497Y017114D01*
X015447Y017117D01*
X015397Y017124D01*
X015348Y017135D01*
X015300Y017149D01*
X015253Y017167D01*
X015207Y017189D01*
X015163Y017214D01*
X015122Y017243D01*
X015083Y017274D01*
X015046Y017309D01*
X015012Y017346D01*
X014981Y017386D01*
X014953Y017428D01*
X014929Y017472D01*
X014908Y017518D01*
X014891Y017566D01*
X014878Y017614D01*
X014868Y017664D01*
X014862Y017714D01*
X014860Y017764D01*
X015310Y016887D02*
X015367Y016876D01*
X015424Y016868D01*
X015481Y016864D01*
X015539Y016864D01*
X015596Y016868D01*
X015653Y016876D01*
X015710Y016887D01*
D11*
X016447Y014764D03*
X014572Y014764D03*
X012447Y014764D03*
X010572Y014764D03*
X008947Y014764D03*
X007072Y014764D03*
D12*
X007072Y014577D02*
X007072Y014014D01*
X008010Y014014D02*
X008010Y014702D01*
X008947Y014577D02*
X008947Y014014D01*
X010572Y014014D02*
X010572Y014577D01*
X011510Y014702D02*
X011510Y014014D01*
X012447Y014014D02*
X012447Y014577D01*
X014572Y014577D02*
X014572Y014014D01*
X015510Y014014D02*
X015510Y014702D01*
X016447Y014577D02*
X016447Y014014D01*
D13*
X015510Y014827D03*
X011510Y014827D03*
X008010Y014827D03*
D14*
X002040Y012321D02*
X002040Y012094D01*
X002040Y012264D02*
X002267Y012264D01*
X002267Y012321D02*
X002267Y012094D01*
X002408Y012094D02*
X002408Y012321D01*
X002408Y012208D02*
X002521Y012321D01*
X002578Y012321D01*
X002715Y012264D02*
X002772Y012321D01*
X002885Y012321D01*
X002942Y012264D01*
X002942Y012208D01*
X002715Y012208D01*
X002715Y012264D02*
X002715Y012151D01*
X002772Y012094D01*
X002885Y012094D01*
X003140Y012094D02*
X003140Y012378D01*
X003197Y012435D01*
X003197Y012264D02*
X003083Y012264D01*
X002946Y013094D02*
X002776Y013094D01*
X002776Y013435D01*
X002946Y013435D01*
X003003Y013378D01*
X003003Y013151D01*
X002946Y013094D01*
X002635Y013094D02*
X002635Y013435D01*
X002408Y013435D02*
X002408Y013094D01*
X002267Y013151D02*
X002267Y013264D01*
X002153Y013264D01*
X002040Y013151D02*
X002040Y013378D01*
X002096Y013435D01*
X002210Y013435D01*
X002267Y013378D01*
X002408Y013435D02*
X002635Y013094D01*
X002267Y013151D02*
X002210Y013094D01*
X002096Y013094D01*
X002040Y013151D01*
X002153Y012435D02*
X002267Y012321D01*
X002153Y012435D02*
X002040Y012321D01*
X002040Y014094D02*
X002267Y014094D01*
X002153Y014094D02*
X002153Y014435D01*
X002040Y014321D01*
X002408Y014378D02*
X002465Y014435D01*
X002578Y014435D01*
X002635Y014378D01*
X002635Y014321D01*
X002578Y014264D01*
X002635Y014208D01*
X002635Y014151D01*
X002578Y014094D01*
X002465Y014094D01*
X002408Y014151D01*
X002521Y014264D02*
X002578Y014264D01*
X002635Y015094D02*
X002408Y015094D01*
X002635Y015321D01*
X002635Y015378D01*
X002578Y015435D01*
X002465Y015435D01*
X002408Y015378D01*
X002267Y015094D02*
X002040Y015094D01*
X002153Y015094D02*
X002153Y015435D01*
X002040Y015321D01*
X002040Y016094D02*
X002267Y016094D01*
X002153Y016094D02*
X002153Y016435D01*
X002040Y016321D01*
X002408Y016321D02*
X002521Y016435D01*
X002521Y016094D01*
X002408Y016094D02*
X002635Y016094D01*
X002578Y017094D02*
X002465Y017094D01*
X002408Y017151D01*
X002635Y017378D01*
X002635Y017151D01*
X002578Y017094D01*
X002408Y017151D02*
X002408Y017378D01*
X002465Y017435D01*
X002578Y017435D01*
X002635Y017378D01*
X002267Y017094D02*
X002040Y017094D01*
X002153Y017094D02*
X002153Y017435D01*
X002040Y017321D01*
X002096Y018094D02*
X002210Y018094D01*
X002267Y018151D01*
X002267Y018378D01*
X002210Y018435D01*
X002096Y018435D01*
X002040Y018378D01*
X002040Y018321D01*
X002096Y018264D01*
X002267Y018264D01*
X002096Y018094D02*
X002040Y018151D01*
X002096Y019094D02*
X002040Y019151D01*
X002040Y019208D01*
X002096Y019264D01*
X002210Y019264D01*
X002267Y019208D01*
X002267Y019151D01*
X002210Y019094D01*
X002096Y019094D01*
X002096Y019264D02*
X002040Y019321D01*
X002040Y019378D01*
X002096Y019435D01*
X002210Y019435D01*
X002267Y019378D01*
X002267Y019321D01*
X002210Y019264D01*
X002040Y020594D02*
X002040Y020651D01*
X002267Y020878D01*
X002267Y020935D01*
X002040Y020935D01*
X002096Y021594D02*
X002210Y021594D01*
X002267Y021651D01*
X002267Y021708D01*
X002210Y021764D01*
X002040Y021764D01*
X002040Y021651D01*
X002096Y021594D01*
X002040Y021764D02*
X002153Y021878D01*
X002267Y021935D01*
X002210Y022594D02*
X002096Y022594D01*
X002040Y022651D01*
X002040Y022764D02*
X002153Y022821D01*
X002210Y022821D01*
X002267Y022764D01*
X002267Y022651D01*
X002210Y022594D01*
X002040Y022764D02*
X002040Y022935D01*
X002267Y022935D01*
X002210Y023594D02*
X002210Y023935D01*
X002040Y023764D01*
X002267Y023764D01*
X002210Y024594D02*
X002096Y024594D01*
X002040Y024651D01*
X002153Y024764D02*
X002210Y024764D01*
X002267Y024708D01*
X002267Y024651D01*
X002210Y024594D01*
X002210Y024764D02*
X002267Y024821D01*
X002267Y024878D01*
X002210Y024935D01*
X002096Y024935D01*
X002040Y024878D01*
X002040Y025594D02*
X002267Y025821D01*
X002267Y025878D01*
X002210Y025935D01*
X002096Y025935D01*
X002040Y025878D01*
X002040Y025594D02*
X002267Y025594D01*
X002153Y026594D02*
X002153Y026935D01*
X002040Y026935D02*
X002267Y026935D01*
X002408Y026935D02*
X002635Y026594D01*
X002408Y026594D02*
X002635Y026935D01*
X002635Y027594D02*
X002408Y027935D01*
X002267Y027878D02*
X002267Y027764D01*
X002210Y027708D01*
X002040Y027708D01*
X002153Y027708D02*
X002267Y027594D01*
X002408Y027594D02*
X002635Y027935D01*
X002267Y027878D02*
X002210Y027935D01*
X002040Y027935D01*
X002040Y027594D01*
X018337Y016764D02*
X018564Y016764D01*
X018451Y016651D02*
X018451Y016878D01*
X018706Y016878D02*
X018762Y016935D01*
X018876Y016935D01*
X018933Y016878D01*
X018933Y016821D01*
X018876Y016764D01*
X018933Y016708D01*
X018933Y016651D01*
X018876Y016594D01*
X018762Y016594D01*
X018706Y016651D01*
X018819Y016764D02*
X018876Y016764D01*
X019074Y016651D02*
X019131Y016651D01*
X019131Y016594D01*
X019074Y016594D01*
X019074Y016651D01*
X019258Y016651D02*
X019315Y016594D01*
X019428Y016594D01*
X019485Y016651D01*
X019485Y016708D01*
X019428Y016764D01*
X019372Y016764D01*
X019428Y016764D02*
X019485Y016821D01*
X019485Y016878D01*
X019428Y016935D01*
X019315Y016935D01*
X019258Y016878D01*
X019626Y016935D02*
X019626Y016708D01*
X019740Y016594D01*
X019853Y016708D01*
X019853Y016935D01*
X019740Y017594D02*
X019853Y017708D01*
X019853Y017935D01*
X019626Y017935D02*
X019626Y017708D01*
X019740Y017594D01*
X019485Y017651D02*
X019428Y017594D01*
X019315Y017594D01*
X019258Y017651D01*
X019258Y017764D02*
X019372Y017821D01*
X019428Y017821D01*
X019485Y017764D01*
X019485Y017651D01*
X019258Y017764D02*
X019258Y017935D01*
X019485Y017935D01*
X019117Y017764D02*
X018890Y017764D01*
X019003Y017651D02*
X019003Y017878D01*
X018947Y018594D02*
X019060Y018594D01*
X019117Y018651D01*
X019117Y018764D01*
X019003Y018764D01*
X018890Y018651D02*
X018947Y018594D01*
X018890Y018651D02*
X018890Y018878D01*
X018947Y018935D01*
X019060Y018935D01*
X019117Y018878D01*
X019258Y018935D02*
X019485Y018594D01*
X019485Y018935D01*
X019626Y018935D02*
X019626Y018594D01*
X019797Y018594D01*
X019853Y018651D01*
X019853Y018878D01*
X019797Y018935D01*
X019626Y018935D01*
X019258Y018935D02*
X019258Y018594D01*
X019258Y019594D02*
X019258Y019935D01*
X019485Y019594D01*
X019485Y019935D01*
X019626Y019935D02*
X019626Y019594D01*
X019797Y019594D01*
X019853Y019651D01*
X019853Y019878D01*
X019797Y019935D01*
X019626Y019935D01*
X019117Y019878D02*
X019060Y019935D01*
X018947Y019935D01*
X018890Y019878D01*
X018890Y019651D01*
X018947Y019594D01*
X019060Y019594D01*
X019117Y019651D01*
X019117Y019764D01*
X019003Y019764D01*
X019126Y020594D02*
X019239Y020708D01*
X019239Y020935D01*
X019381Y020821D02*
X019438Y020821D01*
X019438Y020594D01*
X019494Y020594D02*
X019381Y020594D01*
X019626Y020594D02*
X019626Y020821D01*
X019797Y020821D01*
X019853Y020764D01*
X019853Y020594D01*
X019438Y020935D02*
X019438Y020991D01*
X019013Y020935D02*
X019013Y020708D01*
X019126Y020594D01*
X019683Y022594D02*
X019626Y022651D01*
X019853Y022878D01*
X019853Y022651D01*
X019797Y022594D01*
X019683Y022594D01*
X019626Y022651D02*
X019626Y022878D01*
X019683Y022935D01*
X019797Y022935D01*
X019853Y022878D01*
X019853Y023594D02*
X019626Y023594D01*
X019740Y023594D02*
X019740Y023935D01*
X019626Y023821D01*
X019335Y023775D02*
X019108Y023775D01*
X018994Y023888D01*
X019108Y024002D01*
X019335Y024002D01*
X019335Y024143D02*
X019108Y024143D01*
X019108Y024313D01*
X019165Y024370D01*
X019335Y024370D01*
X019278Y024512D02*
X019221Y024568D01*
X019221Y024738D01*
X019165Y024738D02*
X019335Y024738D01*
X019335Y024568D01*
X019278Y024512D01*
X019108Y024568D02*
X019108Y024682D01*
X019165Y024738D01*
X019335Y024880D02*
X019335Y024993D01*
X019335Y024937D02*
X018994Y024937D01*
X018994Y024880D01*
X019165Y025125D02*
X019108Y025182D01*
X019108Y025296D01*
X019165Y025352D01*
X019278Y025352D01*
X019335Y025296D01*
X019335Y025182D01*
X019278Y025125D01*
X019165Y025125D01*
X019165Y025494D02*
X019278Y025494D01*
X019335Y025550D01*
X019335Y025721D01*
X019391Y025721D02*
X019108Y025721D01*
X019108Y025550D01*
X019165Y025494D01*
X019448Y025607D02*
X019448Y025664D01*
X019391Y025721D01*
X019626Y025651D02*
X019683Y025594D01*
X019797Y025594D01*
X019853Y025651D01*
X019853Y025708D01*
X019797Y025764D01*
X019740Y025764D01*
X019797Y025764D02*
X019853Y025821D01*
X019853Y025878D01*
X019797Y025935D01*
X019683Y025935D01*
X019626Y025878D01*
X019335Y026230D02*
X019335Y026344D01*
X019335Y026287D02*
X018994Y026287D01*
X018994Y026230D02*
X018994Y026344D01*
X019108Y026476D02*
X019108Y026646D01*
X019165Y026703D01*
X019335Y026703D01*
X019335Y026476D02*
X019108Y026476D01*
X019626Y026764D02*
X019853Y026764D01*
X019797Y026594D02*
X019797Y026935D01*
X019626Y026764D01*
X019683Y027594D02*
X019626Y027651D01*
X019683Y027594D02*
X019797Y027594D01*
X019853Y027651D01*
X019853Y027764D01*
X019797Y027821D01*
X019740Y027821D01*
X019626Y027764D01*
X019626Y027935D01*
X019853Y027935D01*
X019797Y024935D02*
X019683Y024935D01*
X019626Y024878D01*
X019797Y024935D02*
X019853Y024878D01*
X019853Y024821D01*
X019626Y024594D01*
X019853Y024594D01*
X019165Y024002D02*
X019165Y023775D01*
X018446Y015935D02*
X018276Y015935D01*
X018276Y015594D01*
X018276Y015708D02*
X018446Y015708D01*
X018503Y015764D01*
X018503Y015878D01*
X018446Y015935D01*
X018389Y015708D02*
X018503Y015594D01*
X018644Y015651D02*
X018644Y015764D01*
X018701Y015821D01*
X018814Y015821D01*
X018871Y015764D01*
X018871Y015708D01*
X018644Y015708D01*
X018644Y015651D02*
X018701Y015594D01*
X018814Y015594D01*
X019013Y015594D02*
X019183Y015594D01*
X019239Y015651D01*
X019183Y015708D01*
X019069Y015708D01*
X019013Y015764D01*
X019069Y015821D01*
X019239Y015821D01*
X019381Y015764D02*
X019438Y015821D01*
X019551Y015821D01*
X019608Y015764D01*
X019608Y015708D01*
X019381Y015708D01*
X019381Y015764D02*
X019381Y015651D01*
X019438Y015594D01*
X019551Y015594D01*
X019806Y015651D02*
X019806Y015878D01*
X019749Y015821D02*
X019863Y015821D01*
X019806Y015651D02*
X019863Y015594D01*
D15*
X018671Y013331D02*
X021112Y013331D01*
X021112Y010575D01*
X018671Y010575D01*
X018671Y013331D01*
X021112Y013331D02*
X021427Y013331D01*
X021427Y010575D01*
X021112Y010575D01*
X015510Y027514D02*
X015510Y028014D01*
X011510Y028014D02*
X011510Y027514D01*
X008250Y026237D02*
X008250Y025292D01*
X005770Y025292D01*
X005770Y026237D01*
X008250Y026237D01*
X008250Y024737D02*
X005770Y024737D01*
X005770Y023792D01*
X008250Y023792D01*
X008250Y024737D01*
X008250Y022737D02*
X005770Y022737D01*
X005770Y021792D01*
X008250Y021792D01*
X008250Y022737D01*
M02*
